{
  "accessors": [
    {
      "bufferView": 2,
      "componentType": 5126,
      "count": 7250,
      "max": [
        3.682375431060791,
        6.362914085388184,
        1.0704090595245361
      ],
      "min": [
        -3.682375192642212,
        -0.21982398629188538,
        -1.3299055099487305
      ],
      "type": "VEC3"
    },
    {
      "bufferView": 2,
      "byteOffset": 87000,
      "componentType": 5126,
      "count": 7250,
      "max": [
        0.9999263286590576,
        1.0,
        0.9999033212661743
      ],
      "min": [
        -0.9999263286590576,
        -1.0,
        -0.9998255968093872
      ],
      "type": "VEC3"
    },
    {
      "bufferView": 1,
      "componentType": 5126,
      "count": 7250,
      "max": [
        0.7500001192092896,
        0.8750001192092896
      ],
      "min": [
        0.2500000298023224,
        0.3750000298023224
      ],
      "type": "VEC2"
    },
    {
      "bufferView": 0,
      "componentType": 5125,
      "count": 38112,
      "type": "SCALAR"
    },
    {
      "bufferView": 2,
      "byteOffset": 174000,
      "componentType": 5126,
      "count": 24,
      "max": [
        1.0048106908798218,
        1.0,
        -0.04682883620262146
      ],
      "min": [
        -3.5920419692993164,
        -0.9886645078659058,
        -0.04682893306016922
      ],
      "type": "VEC3"
    },
    {
      "bufferView": 2,
      "byteOffset": 174288,
      "componentType": 5126,
      "count": 24,
      "max": [
        2.229053563951311e-08,
        1.8807408252996538e-07,
        1.0
      ],
      "min": [
        -2.178393820884139e-08,
        -7.370596932787521e-08,
        1.0
      ],
      "type": "VEC3"
    },
    {
      "bufferView": 1,
      "byteOffset": 58000,
      "componentType": 5126,
      "count": 24,
      "max": [
        1.0,
        1.0
      ],
      "min": [
        0.0,
        0.0
      ],
      "type": "VEC2"
    },
    {
      "bufferView": 0,
      "byteOffset": 152448,
      "componentType": 5125,
      "count": 36,
      "type": "SCALAR"
    }
  ],
  "asset": {
    "extras": {
      "author": "assetfactory (https://sketchfab.com/assetfactory)",
      "license": "CC-BY-4.0 (http://creativecommons.org/licenses/by/4.0/)",
      "source": "https://sketchfab.com/3d-models/dark-sunglasses-69d530f7e6bd45b9b3d9f16dae627348",
      "title": "Dark sunglasses"
    },
    "generator": "Sketchfab-13.68.0",
    "version": "2.0"
  },
  "bufferViews": [
    {
      "buffer": 0,
      "byteLength": 152592,
      "name": "floatBufferViews",
      "target": 34963
    },
    {
      "buffer": 0,
      "byteLength": 58192,
      "byteOffset": 152592,
      "byteStride": 8,
      "name": "floatBufferViews",
      "target": 34962
    },
    {
      "buffer": 0,
      "byteLength": 174576,
      "byteOffset": 210784,
      "byteStride": 12,
      "name": "floatBufferViews",
      "target": 34962
    }
  ],
  "buffers": [
    {
      "byteLength": 385360,
      "uri": "scene.bin"
    }
  ],
  "materials": [
    {
      "doubleSided": true,
      "name": "BlackPlastic",
      "pbrMetallicRoughness": {
        "baseColorFactor": [
          0.00424152,
          0.00424152,
          0.00424152,
          1.0
        ],
        "metallicFactor": 0.0,
        "roughnessFactor": 0.0009484327047924908
      }
    },
    {
      "alphaMode": "BLEND",
      "doubleSided": true,
      "name": "BlackGlass",
      "pbrMetallicRoughness": {
        "baseColorFactor": [
          0.00364186,
          0.00364186,
          0.00364186,
          0.9303160241032131
        ],
        "metallicFactor": 0.0,
        "roughnessFactor": 0.0008143446524537383
      }
    }
  ],
  "meshes": [
    {
      "name": "Cube.010_BlackPlastic_0",
      "primitives": [
        {
          "attributes": {
            "NORMAL": 1,
            "POSITION": 0,
            "TEXCOORD_0": 2
          },
          "indices": 3,
          "material": 0,
          "mode": 4
        }
      ]
    },
    {
      "name": "Plane_BlackGlass_0",
      "primitives": [
        {
          "attributes": {
            "NORMAL": 5,
            "POSITION": 4,
            "TEXCOORD_0": 6
          },
          "indices": 7,
          "material": 1,
          "mode": 4
        }
      ]
    }
  ],
  "nodes": [
    {
      "children": [
        1
      ],
      "matrix": [
        1.0,
        0.0,
        0.0,
        0.0,
        0.0,
        2.220446049250313e-16,
        -1.0,
        0.0,
        0.0,
        1.0,
        2.220446049250313e-16,
        0.0,
        0.0,
        0.0,
        0.0,
        1.0
      ],
      "name": "Sketchfab_model"
    },
    {
      "children": [
        2
      ],
      "matrix": [
        0.009999999776482582,
        0.0,
        0.0,
        0.0,
        0.0,
        0.0,
        0.009999999776482582,
        0.0,
        0.0,
        -0.009999999776482582,
        0.0,
        0.0,
        0.0,
        0.0,
        0.0,
        1.0
      ],
      "name": "Sunglasses_3.fbx"
    },
    {
      "children": [
        3,
        5
      ],
      "name": "RootNode"
    },
    {
      "children": [
        4
      ],
      "matrix": [
        16.830720901489258,
        0.0,
        0.0,
        0.0,
        0.0,
        -2.742072483924927e-06,
        -16.830720901489034,
        0.0,
        0.0,
        16.830720901489034,
        -2.742072483924927e-06,
        0.0,
        4.202386255278655e-15,
        18.925865173339844,
        12.892803192138672,
        1.0
      ],
      "name": "Cube.010"
    },
    {
      "mesh": 0,
      "name": "Cube.010_BlackPlastic_0"
    },
    {
      "children": [
        6
      ],
      "matrix": [
        25.867834091186523,
        0.0,
        0.0,
        0.0,
        0.0,
        16.11258888244627,
        7.043036289451865e-07,
        0.0,
        0.0,
        -6.563185480246706e-07,
        15.014818191528306,
        0.0,
        33.463035583496094,
        18.628116607666016,
        12.892803192138672,
        1.0
      ],
      "name": "Plane"
    },
    {
      "mesh": 1,
      "name": "Plane_BlackGlass_0"
    }
  ],
  "scene": 0,
  "scenes": [
    {
      "name": "Sketchfab_Scene",
      "nodes": [
        0
      ]
    }
  ]
}
